<svg width="1080" height="1920" xmlns="http://www.w3.org/2000/svg">
  <rect width="1080" height="1920" fill="#0a0a0a"/>
  <circle cx="540" cy="860" r="120" fill="none" stroke="#c9a84c" stroke-width="3" opacity="0.2"/>
  <circle cx="540" cy="860" r="80" fill="none" stroke="#c9a84c" stroke-width="2" opacity="0.1"/>
  <!-- Users/People icon -->
  <circle cx="540" cy="835" r="18" fill="none" stroke="#f5f5f5" stroke-width="4"/>
  <path d="M510 890 C510 870 525 858 540 858 C555 858 570 870 570 890" fill="none" stroke="#f5f5f5" stroke-width="4" stroke-linecap="round"/>
  <circle cx="490" cy="845" r="14" fill="none" stroke="#f5f5f5" stroke-width="3.5" opacity="0.7"/>
  <path d="M465 890 C465 874 477 865 490 865 C500 865 508 870 513 878" fill="none" stroke="#f5f5f5" stroke-width="3.5" stroke-linecap="round" opacity="0.7"/>
  <circle cx="590" cy="845" r="14" fill="none" stroke="#f5f5f5" stroke-width="3.5" opacity="0.7"/>
  <path d="M567 878 C572 870 580 865 590 865 C603 865 615 874 615 890" fill="none" stroke="#f5f5f5" stroke-width="3.5" stroke-linecap="round" opacity="0.7"/>
  <!-- Title -->
  <text x="540" y="1020" text-anchor="middle" fill="#f5f5f5" font-family="Inter, system-ui, sans-serif" font-weight="700" font-size="48">Comunidade</text>
  <!-- Accent line -->
  <rect x="490" y="1050" width="100" height="3" rx="2" fill="#c9a84c"/>
  <!-- Infinity symbol -->
  <text x="540" y="1780" text-anchor="middle" fill="#c9a84c" font-size="36" opacity="0.3">♾️</text>
</svg>
